<svg width="513" height="324" viewBox="0 0 513 324" fill="none" xmlns="http://www.w3.org/2000/svg">
<path fill-rule="evenodd" clip-rule="evenodd" d="M76.0833 181.363L151.739 253.158L97.182 310.648C87.6626 320.68 71.8113 321.095 61.7799 311.575L13.3713 265.637C8.35556 260.878 8.14801 252.952 12.9077 247.936L76.0833 181.363Z" fill="#4F4F4F"/>
<path opacity="0.9" fill-rule="evenodd" clip-rule="evenodd" d="M160.187 92.7359L333.114 256.837L278.555 314.331C269.036 324.362 253.187 324.779 243.153 315.258L88.3909 168.394L160.187 92.7359Z" fill="#31A217"/>
<path fill-rule="evenodd" clip-rule="evenodd" d="M253.372 12.7297L499.068 245.887C504.084 250.647 504.291 258.572 499.532 263.588L453.594 311.997C444.072 322.03 428.225 322.445 418.192 312.924L172.495 79.7664L235.671 13.1932C240.43 8.1775 248.356 7.96996 253.372 12.7297Z" fill="#31A217"/>
</svg>
