<?xml version="1.0" encoding="utf-8"?>
<svg viewBox="0 0 192 192" xmlns="http://www.w3.org/2000/svg" xmlns:bx="https://boxy-svg.com">
  <g id="logos/android-2" stroke="none" stroke-width="1" fill="none" fill-rule="evenodd">
    <g id="Group">
      <g id="logo/block--v2">
        <g id="Mask"/>
        <mask id="mask-4" fill="white">
          <circle cx="96" cy="96" r="96" transform="matrix(1, 0, 0, 1, 0, 0)"/>
        </mask>
        <g id="Mask-Copy"/>
        <g mask="url(#mask-4)" id="Group-13">
          <g transform="translate(97.005645, 119.108313) rotate(42.500000) translate(-97.005645, -119.108313) translate(37.005645, 61.608313)">
            <g transform="translate(60.223817, 57.520327) rotate(-359.000000) translate(-60.223817, -57.520327) translate(1.723817, 1.520327)">
              <path d="M -8.733 69.047 L 24.587 69.047 L 24.587 94.367 C 24.587 98.785 21.005 102.367 16.587 102.367 L -4.733 102.367 C -6.942 102.367 -8.733 100.576 -8.733 98.367 L -8.733 69.047 Z" id="Rectangle-15" fill="#4F4F4F"/>
              <path d="M -8.733 30.014 L 67.427 30.014 L 67.427 55.335 C 67.427 59.753 63.846 63.335 59.427 63.335 L -8.733 63.335 L -8.733 30.014 Z" id="Rectangle-15" fill="#31A217" opacity="0.900000036"/>
              <path d="M -4.733 -9.018 L 103.476 -9.018 C 105.685 -9.018 107.476 -7.227 107.476 -5.018 L 107.476 16.302 C 107.476 20.721 103.895 24.302 99.476 24.302 L -8.733 24.302 L -8.733 -5.018 C -8.733 -7.227 -6.942 -9.018 -4.733 -9.018 Z" id="Rectangle-15" fill="#31A217"/>
            </g>
          </g>
        </g>
      </g>
    </g>
  </g>
  <path d="M 56.72864532470703 138.0033721923828 L 56.72864532470703 153.3095245361328 L 59.61585235595703 153.3095245361328 Q 63.28089141845703 153.3095245361328 64.98816680908203 151.4638214111328 Q 66.69544219970703 149.6181182861328 66.69544219970703 145.6366729736328 Q 66.69544219970703 141.6815948486328 64.98816680908203 139.8424835205078 Q 63.28089141845703 138.0033721923828 59.61585235595703 138.0033721923828 Z M 54.32923126220703 135.8148956298828 L 59.24671173095703 135.8148956298828 Q 64.40149688720703 135.8148956298828 66.80750274658203 138.1945343017578 Q 69.21350860595703 140.5741729736328 69.21350860595703 145.6366729736328 Q 69.21350860595703 150.7255401611328 66.79431915283203 153.1117706298828 Q 64.37512969970703 155.4980010986328 59.24671173095703 155.4980010986328 L 54.32923126220703 155.4980010986328 Z M 73.03602600097656 135.8148956298828 L 84.22889709472656 135.8148956298828 L 84.22889709472656 138.0561065673828 L 75.43544006347656 138.0561065673828 L 75.43544006347656 143.8832550048828 L 83.87294006347656 143.8832550048828 L 83.87294006347656 146.1244659423828 L 75.43544006347656 146.1244659423828 L 75.43544006347656 153.2567901611328 L 84.45301818847656 153.2567901611328 L 84.45301818847656 155.4980010986328 L 73.03602600097656 155.4980010986328 Z M 90.78054809570312 146.0980987548828 L 90.78054809570312 153.3095245361328 L 94.61697387695312 153.3095245361328 Q 96.55496215820312 153.3095245361328 97.48440551757812 152.4196319580078 Q 98.41384887695312 151.5297393798828 98.41384887695312 149.6972198486328 Q 98.41384887695312 147.8515167236328 97.48440551757812 146.9748077392578 Q 96.55496215820312 146.0980987548828 94.61697387695312 146.0980987548828 Z M 90.78054809570312 138.0033721923828 L 90.78054809570312 143.9359893798828 L 94.32693481445312 143.9359893798828 Q 96.08035278320312 143.9359893798828 96.94387817382812 143.2042999267578 Q 97.80740356445312 142.4726104736328 97.80740356445312 140.9696807861328 Q 97.80740356445312 139.4799346923828 96.94387817382812 138.7416534423828 Q 96.08035278320312 138.0033721923828 94.32693481445312 138.0033721923828 Z M 88.38113403320312 135.8148956298828 L 94.49832153320312 135.8148956298828 Q 97.24050903320312 135.8148956298828 98.72366333007812 137.0805206298828 Q 100.20681762695312 138.3461456298828 100.20681762695312 140.6796417236328 Q 100.20681762695312 142.4857940673828 99.44876098632812 143.5536651611328 Q 98.69070434570312 144.6215362548828 97.21414184570312 144.8852081298828 Q 98.99392700195312 145.3070831298828 99.96951293945312 146.6452178955078 Q 100.94509887695312 147.9833526611328 100.94509887695312 149.9872589111328 Q 100.94509887695312 152.6239776611328 99.33010864257812 154.0609893798828 Q 97.71511840820312 155.4980010986328 94.73562622070312 155.4980010986328 L 88.38113403320312 155.4980010986328 Z M 104.7677001953125 135.8148956298828 L 107.1802978515625 135.8148956298828 L 107.1802978515625 147.7724151611328 Q 107.1802978515625 150.9364776611328 108.2152099609375 152.3273468017578 Q 109.2501220703125 153.7182159423828 111.5572509765625 153.7182159423828 Q 113.8643798828125 153.7182159423828 114.8927001953125 152.3273468017578 Q 115.9210205078125 150.9364776611328 115.9210205078125 147.7724151611328 L 115.9210205078125 135.8148956298828 L 118.3336181640625 135.8148956298828 L 118.3336181640625 148.1020050048828 Q 118.3336181640625 151.9516143798828 116.6197509765625 153.9159698486328 Q 114.9058837890625 155.8803253173828 111.5572509765625 155.8803253173828 Q 108.1954345703125 155.8803253173828 106.4815673828125 153.9159698486328 Q 104.7677001953125 151.9516143798828 104.7677001953125 148.1020050048828 Z M 134.9047088623047 152.6898956298828 L 134.9047088623047 147.4032745361328 L 130.9891815185547 147.4032745361328 L 130.9891815185547 145.2147979736328 L 137.2777557373047 145.2147979736328 L 137.2777557373047 153.6654815673828 Q 135.8934783935547 154.7597198486328 134.2191619873047 155.3200225830078 Q 132.5448455810547 155.8803253173828 130.6464080810547 155.8803253173828 Q 126.49357604980469 155.8803253173828 124.15348815917969 153.1842803955078 Q 121.81340026855469 150.4882354736328 121.81340026855469 145.6762237548828 Q 121.81340026855469 140.8510284423828 124.15348815917969 138.1549835205078 Q 126.49357604980469 135.4589385986328 130.6464080810547 135.4589385986328 Q 132.3734588623047 135.4589385986328 133.9357147216797 135.9335479736328 Q 135.4979705810547 136.4081573486328 136.8163299560547 137.3310089111328 L 136.8163299560547 140.1654815673828 Q 135.4847869873047 138.9130401611328 133.9884490966797 138.2802276611328 Q 132.4921112060547 137.6474151611328 130.8441619873047 137.6474151611328 Q 127.60099792480469 137.6474151611328 125.96623229980469 139.6645050048828 Q 124.33146667480469 141.6815948486328 124.33146667480469 145.6762237548828 Q 124.33146667480469 149.6576690673828 125.96623229980469 151.6747589111328 Q 127.60099792480469 153.6918487548828 130.8441619873047 153.6918487548828 Q 132.1229705810547 153.6918487548828 133.1183319091797 153.4479522705078 Q 134.1136932373047 153.2040557861328 134.9047088623047 152.6898956298828 Z" transform="matrix(1, 0, 0, 1, 0, 0)" style="fill: rgb(51, 51, 51); white-space: pre;"/>
</svg>