<?xml version="1.0" encoding="utf-8"?>
<svg viewBox="0 0 192 192" xmlns="http://www.w3.org/2000/svg" xmlns:bx="https://boxy-svg.com">
  <g id="logos/android-2" stroke="none" stroke-width="1" fill="none" fill-rule="evenodd">
    <g id="Group">
      <g id="logo/block--v2">
        <g id="Mask"/>
        <mask id="mask-4" fill="white">
          <circle cx="96" cy="96" r="96" transform="matrix(1, 0, 0, 1, 0, 0)"/>
        </mask>
        <g id="Mask-Copy"/>
        <g mask="url(#mask-4)" id="Group-13">
          <g transform="translate(97.005645, 119.108313) rotate(42.500000) translate(-97.005645, -119.108313) translate(37.005645, 61.608313)">
            <g transform="translate(60.223817, 57.520327) rotate(-359.000000) translate(-60.223817, -57.520327) translate(1.723817, 1.520327)">
              <path d="M -8.733 69.047 L 24.587 69.047 L 24.587 94.367 C 24.587 98.785 21.005 102.367 16.587 102.367 L -4.733 102.367 C -6.942 102.367 -8.733 100.576 -8.733 98.367 L -8.733 69.047 Z" id="Rectangle-15" fill="#4F4F4F"/>
              <path d="M -8.733 30.014 L 67.427 30.014 L 67.427 55.335 C 67.427 59.753 63.846 63.335 59.427 63.335 L -8.733 63.335 L -8.733 30.014 Z" id="Rectangle-15" fill="#31A217" opacity="0.900000036"/>
              <path d="M -4.733 -9.018 L 103.476 -9.018 C 105.685 -9.018 107.476 -7.227 107.476 -5.018 L 107.476 16.302 C 107.476 20.721 103.895 24.302 99.476 24.302 L -8.733 24.302 L -8.733 -5.018 C -8.733 -7.227 -6.942 -9.018 -4.733 -9.018 Z" id="Rectangle-15" fill="#31A217"/>
            </g>
          </g>
        </g>
      </g>
    </g>
  </g>
  <path d="M 23.32923126220703 135.8148956298828 L 34.52210235595703 135.8148956298828 L 34.52210235595703 138.0561065673828 L 25.72864532470703 138.0561065673828 L 25.72864532470703 143.8832550048828 L 34.16614532470703 143.8832550048828 L 34.16614532470703 146.1244659423828 L 25.72864532470703 146.1244659423828 L 25.72864532470703 153.2567901611328 L 34.74622344970703 153.2567901611328 L 34.74622344970703 155.4980010986328 L 23.32923126220703 155.4980010986328 Z M 38.674842834472656 135.8148956298828 L 41.904823303222656 135.8148956298828 L 49.762245178222656 152.2812042236328 L 49.762245178222656 135.8148956298828 L 52.082557678222656 135.8148956298828 L 52.082557678222656 155.4980010986328 L 48.852577209472656 155.4980010986328 L 40.995155334472656 139.0316925048828 L 40.995155334472656 155.4980010986328 L 38.674842834472656 155.4980010986328 Z M 54.38957977294922 135.8148956298828 L 69.36614227294922 135.8148956298828 L 69.36614227294922 138.0561065673828 L 63.07756805419922 138.0561065673828 L 63.07756805419922 155.4980010986328 L 60.67815399169922 155.4980010986328 L 60.67815399169922 138.0561065673828 L 54.38957977294922 138.0561065673828 Z M 71.67318725585938 135.8148956298828 L 82.86605834960938 135.8148956298828 L 82.86605834960938 138.0561065673828 L 74.07260131835938 138.0561065673828 L 74.07260131835938 143.8832550048828 L 82.51010131835938 143.8832550048828 L 82.51010131835938 146.1244659423828 L 74.07260131835938 146.1244659423828 L 74.07260131835938 153.2567901611328 L 83.09017944335938 153.2567901611328 L 83.09017944335938 155.4980010986328 L 71.67318725585938 155.4980010986328 Z M 95.416748046875 146.2694854736328 Q 96.194580078125 146.5595245361328 96.919677734375 147.5087432861328 Q 97.644775390625 148.4579620361328 98.383056640625 150.1190948486328 L 100.822021484375 155.4980010986328 L 98.238037109375 155.4980010986328 L 95.970458984375 150.4486846923828 Q 95.100341796875 148.4711456298828 94.2763671875 147.8251495361328 Q 93.452392578125 147.1791534423828 92.028564453125 147.1791534423828 L 89.418212890625 147.1791534423828 L 89.418212890625 155.4980010986328 L 87.018798828125 155.4980010986328 L 87.018798828125 135.8148956298828 L 92.424072265625 135.8148956298828 Q 95.469482421875 135.8148956298828 96.959228515625 137.2255401611328 Q 98.448974609375 138.6361846923828 98.448974609375 141.4838409423828 Q 98.448974609375 143.3427276611328 97.677734375 144.5688018798828 Q 96.906494140625 145.7948760986328 95.416748046875 146.2694854736328 Z M 89.418212890625 138.0033721923828 L 89.418212890625 144.9906768798828 L 92.424072265625 144.9906768798828 Q 94.164306640625 144.9906768798828 95.047607421875 144.1007843017578 Q 95.930908203125 143.2108917236328 95.930908203125 141.4838409423828 Q 95.930908203125 139.7567901611328 95.047607421875 138.8800811767578 Q 94.164306640625 138.0033721923828 92.424072265625 138.0033721923828 Z M 106.2931137084961 138.0033721923828 L 106.2931137084961 145.3993682861328 L 109.2989730834961 145.3993682861328 Q 110.9732894897461 145.3993682861328 111.8895492553711 144.4369659423828 Q 112.8058090209961 143.4745635986328 112.8058090209961 141.6947784423828 Q 112.8058090209961 139.9281768798828 111.8895492553711 138.9657745361328 Q 110.9732894897461 138.0033721923828 109.2989730834961 138.0033721923828 Z M 103.8936996459961 135.8148956298828 L 109.2989730834961 135.8148956298828 Q 112.2784652709961 135.8148956298828 113.8011703491211 137.3112335205078 Q 115.3238754272461 138.8075714111328 115.3238754272461 141.6947784423828 Q 115.3238754272461 144.6083526611328 113.8011703491211 146.0980987548828 Q 112.2784652709961 147.5878448486328 109.2989730834961 147.5878448486328 L 106.2931137084961 147.5878448486328 L 106.2931137084961 155.4980010986328 L 103.8936996459961 155.4980010986328 Z M 126.93853759765625 146.2694854736328 Q 127.71636962890625 146.5595245361328 128.44146728515625 147.5087432861328 Q 129.16656494140625 148.4579620361328 129.90484619140625 150.1190948486328 L 132.34381103515625 155.4980010986328 L 129.75982666015625 155.4980010986328 L 127.49224853515625 150.4486846923828 Q 126.62213134765625 148.4711456298828 125.79815673828125 147.8251495361328 Q 124.97418212890625 147.1791534423828 123.55035400390625 147.1791534423828 L 120.94000244140625 147.1791534423828 L 120.94000244140625 155.4980010986328 L 118.54058837890625 155.4980010986328 L 118.54058837890625 135.8148956298828 L 123.94586181640625 135.8148956298828 Q 126.99127197265625 135.8148956298828 128.48101806640625 137.2255401611328 Q 129.97076416015625 138.6361846923828 129.97076416015625 141.4838409423828 Q 129.97076416015625 143.3427276611328 129.19952392578125 144.5688018798828 Q 128.42828369140625 145.7948760986328 126.93853759765625 146.2694854736328 Z M 120.94000244140625 138.0033721923828 L 120.94000244140625 144.9906768798828 L 123.94586181640625 144.9906768798828 Q 125.68609619140625 144.9906768798828 126.56939697265625 144.1007843017578 Q 127.45269775390625 143.2108917236328 127.45269775390625 141.4838409423828 Q 127.45269775390625 139.7567901611328 126.56939697265625 138.8800811767578 Q 125.68609619140625 138.0033721923828 123.94586181640625 138.0033721923828 Z M 135.41549682617188 135.8148956298828 L 137.81491088867188 135.8148956298828 L 137.81491088867188 155.4980010986328 L 135.41549682617188 155.4980010986328 Z M 153.1869354248047 136.4608917236328 L 153.1869354248047 139.0580596923828 Q 151.8290252685547 138.3329620361328 150.6161346435547 137.9770050048828 Q 149.4032440185547 137.6210479736328 148.2826385498047 137.6210479736328 Q 146.3182830810547 137.6210479736328 145.2570037841797 138.4647979736328 Q 144.1957244873047 139.3085479736328 144.1957244873047 140.8642120361328 Q 144.1957244873047 142.1693878173828 144.9010467529297 142.8351593017578 Q 145.6063690185547 143.5009307861328 147.5839080810547 143.9096221923828 L 149.0209197998047 144.2392120361328 Q 151.7103729248047 144.8061065673828 152.9825897216797 146.2365264892578 Q 154.2548065185547 147.6669464111328 154.2548065185547 150.0663604736328 Q 154.2548065185547 152.9272003173828 152.5343475341797 154.4037628173828 Q 150.8138885498047 155.8803253173828 147.4784393310547 155.8803253173828 Q 146.2128143310547 155.8803253173828 144.7955780029297 155.5639190673828 Q 143.3783416748047 155.2475128173828 141.8622283935547 154.6278839111328 L 141.8622283935547 151.8856964111328 Q 143.3256072998047 152.7953643798828 144.7230682373047 153.2567901611328 Q 146.1205291748047 153.7182159423828 147.4784393310547 153.7182159423828 Q 149.5218963623047 153.7182159423828 150.6425018310547 152.8217315673828 Q 151.7631072998047 151.9252471923828 151.7631072998047 150.2641143798828 Q 151.7631072998047 148.8139190673828 150.9589080810547 147.9965362548828 Q 150.1547088623047 147.1791534423828 148.3221893310547 146.7704620361328 L 146.8719940185547 146.4540557861328 Q 144.1825408935547 145.8607940673828 142.9894256591797 144.5951690673828 Q 141.7963104248047 143.3295440673828 141.7963104248047 141.0751495361328 Q 141.7963104248047 138.4647979736328 143.4508514404297 136.9618682861328 Q 145.1053924560547 135.4589385986328 148.0057830810547 135.4589385986328 Q 149.2582244873047 135.4589385986328 150.5502166748047 135.7094268798828 Q 151.8422088623047 135.9599151611328 153.1869354248047 136.4608917236328 Z M 157.99884033203125 135.8148956298828 L 169.19171142578125 135.8148956298828 L 169.19171142578125 138.0561065673828 L 160.39825439453125 138.0561065673828 L 160.39825439453125 143.8832550048828 L 168.83575439453125 143.8832550048828 L 168.83575439453125 146.1244659423828 L 160.39825439453125 146.1244659423828 L 160.39825439453125 153.2567901611328 L 169.41583251953125 153.2567901611328 L 169.41583251953125 155.4980010986328 L 157.99884033203125 155.4980010986328 Z" transform="matrix(1, 0, 0, 1, 0, 0)" style="fill: rgb(51, 51, 51); white-space: pre;"/>
</svg>